<svg version="1.0" xmlns="http://www.w3.org/2000/svg"
 width="1280.000000pt" height="1280.000000pt" viewBox="0 0 1280.000000 1280.000000"
 preserveAspectRatio="xMidYMid meet">
<g transform="translate(0.000000,1280.000000) scale(0.100000,-0.100000)"
fill="#F16E6C" stroke="none">
<path d="M5985 12070 c-1011 -88 -1885 -440 -2645 -1069 -155 -127 -493 -467
-621 -622 -505 -614 -841 -1375 -948 -2149 -61 -444 -50 -973 30 -1420 175
-980 718 -1905 1478 -2516 607 -488 1296 -764 2051 -823 123 -10 503 -6 584 5
l49 7 -7 -26 c-22 -89 -275 -598 -320 -645 -10 -10 -46 9 -187 97 -726 454
-1370 733 -1925 836 -509 94 -1010 33 -1421 -174 -283 -142 -548 -395 -666
-635 -99 -201 -132 -362 -124 -604 6 -195 32 -307 111 -467 197 -398 669 -747
1185 -875 220 -55 318 -65 631 -64 303 0 455 13 725 59 742 128 1453 467 2069
984 53 44 98 81 101 81 2 0 80 -56 172 -123 1143 -840 1774 -1127 2481 -1127
415 0 815 110 1157 320 620 379 1203 1233 1349 1977 67 341 61 634 -18 864
-44 130 -86 198 -177 291 -90 92 -165 131 -281 150 -167 25 -317 -28 -448
-160 -169 -170 -239 -374 -212 -616 31 -282 156 -449 445 -591 71 -36 138 -72
148 -81 36 -33 54 -103 53 -209 -2 -168 -47 -307 -147 -457 -168 -252 -523
-494 -912 -622 -320 -105 -611 -143 -1030 -133 -795 18 -1414 204 -2298 692
l-68 37 19 22 c228 255 470 594 644 901 107 189 134 242 223 439 l72 160 199
86 c754 327 1213 645 1809 1251 738 752 1218 1414 1611 2223 156 321 338 814
428 1156 171 651 229 1414 150 1960 -34 238 -102 459 -201 653 -155 303 -378
495 -668 573 -99 27 -402 27 -525 1 -324 -69 -622 -235 -932 -519 -64 -59
-102 -87 -110 -82 -7 4 -56 42 -108 85 -328 264 -680 481 -1015 624 -298 127
-644 216 -1020 260 -161 20 -774 29 -940 15z m750 -291 c599 -46 1151 -234
1659 -566 132 -87 324 -229 408 -302 l47 -42 -101 -122 c-720 -875 -1061
-1633 -1612 -3577 -52 -184 -151 -524 -219 -755 -69 -231 -171 -575 -227 -765
-192 -649 -352 -1137 -532 -1622 l-92 -247 -56 -8 c-30 -4 -203 -8 -385 -8
-262 0 -356 4 -455 18 -481 68 -896 213 -1315 459 -415 244 -785 579 -1053
954 -359 503 -578 1076 -654 1709 -20 168 -17 711 5 895 70 574 204 1020 461
1526 362 717 876 1302 1516 1729 664 442 1363 685 2100 728 107 7 396 4 505
-4z m3780 -384 c208 -44 353 -187 434 -431 135 -403 141 -1135 16 -1886 -115
-689 -340 -1369 -670 -2028 -348 -695 -733 -1229 -1279 -1776 -357 -357 -605
-571 -841 -726 -161 -106 -725 -384 -725 -358 0 5 23 85 50 177 161 534 325
1181 510 2003 222 988 438 1812 665 2535 123 391 152 477 235 695 117 309 331
790 351 790 20 0 274 -380 397 -595 44 -77 124 -229 178 -337 54 -109 103
-198 109 -198 5 0 65 27 132 59 l122 60 -70 148 c-107 224 -283 568 -337 658
-57 97 -190 277 -302 410 -45 53 -79 102 -77 108 8 21 139 190 218 283 160
187 310 311 445 367 129 54 301 71 439 42z m-6985 -7930 c351 -55 693 -192
1210 -485 324 -184 730 -432 723 -444 -39 -69 -189 -274 -269 -370 -218 -260
-471 -472 -761 -635 -691 -389 -1617 -413 -2208 -56 -253 153 -450 351 -536
541 -59 129 -74 204 -74 374 0 185 13 247 85 395 174 359 584 617 1099 690
133 19 586 13 731 -10z"/>
</g>
</svg>