<svg width="566" height="76" viewBox="0 0 566 76" fill="none" xmlns="http://www.w3.org/2000/svg">
<path fill-rule="evenodd" clip-rule="evenodd" d="M62.5828 7.36084C60.1556 5.45312 57.1937 3.125 55.157 0.485352H96.7015L99.3851 1.29736C103.681 2.6377 129.835 9.62061 131.957 9.48193L123.439 0.485352H139.755C140.367 1.20312 140.992 1.93994 141.632 2.69775C141.874 2.9668 142.124 3.24951 142.383 3.54199L142.386 3.54492L142.395 3.55518C143.898 5.25342 145.668 7.25244 147.548 8.56885C148.548 9.82861 149.527 10.6665 150.505 11.5049C151.484 12.3428 152.463 13.1812 153.463 14.4404C158.116 19.2305 158.438 27.0225 151.847 26.8608L138.078 24.1572C134.132 23.626 131.272 22.9878 128.141 22.2886C126.93 22.0186 125.679 21.7393 124.309 21.4536C119.045 19.7451 115.66 18.8018 110.748 17.7778C105.485 16.0698 86.3299 9.90381 84.2078 10.042L111.836 34.0864L112.056 34.2056C116.985 36.876 121.991 39.5894 126.4 42.6094C132.84 48.125 134.517 57.0381 126.398 56.7959L95.2972 48.7202C90.9446 47.4092 67.2293 40.9038 64.5823 41.3979L79.5901 55.0562C83.408 58.3252 87.7068 61.3374 91.7503 64.1699L91.7869 64.1963L91.8001 64.2051C97.5945 68.2632 102.858 71.9492 105.421 75.4854H54.2146C50.1526 74.4795 46.3807 73.4272 42.1673 71.5918C36.305 70.0864 32.7449 68.4863 30.0584 67.2783L30.0525 67.2754L30.032 67.2666C28.511 66.583 27.2693 66.0254 26.0457 65.6846C28.6766 68.5625 32.6463 72.0234 37.0159 75.4854H19.8733L16.5599 72.2856C10.2928 65.73 -8.68672 44.3374 5.75811 41.3311C8.81231 41.0806 12.2669 43.8589 15.6424 46.5732C15.9637 46.8315 16.2845 47.0894 16.6043 47.3442C16.9119 47.5894 17.2181 47.8311 17.5228 48.0674C18.1595 48.561 18.7898 49.0317 19.4109 49.457C22.594 51.9302 25.5706 53.3428 28.6731 54.8145C30.2747 55.5742 31.9095 56.3501 33.6233 57.2959C39.534 60.4019 70.8992 67.4766 77.1395 66.9536L50.7742 43.9907L50.45 43.7144L50.139 43.4502C44.8021 38.9214 23.4583 20.8091 35.8558 17.8315C38.2596 17.1152 45.2269 19.8179 53.0516 22.854C59.6063 25.397 66.7625 28.1733 72.3426 29.3691L72.4622 29.4102C77.7718 31.2388 90.0018 35.4512 94.1795 35.1089C89.1868 30.8174 85.4148 27.3594 81.741 23.9907L81.7205 23.9717C76.8265 19.4858 72.1048 15.1582 64.9017 9.23047C64.7068 9.06348 64.5003 8.8916 64.284 8.71484C64.0828 8.55029 63.8733 8.38184 63.6565 8.20898C63.4817 8.06934 63.3021 7.92725 63.1185 7.78271L62.5828 7.36084ZM495.237 75.4854C500.602 70.5713 505.335 66.2578 508.02 64.105C511.268 61.8813 513.841 59.627 516.43 56.6079C526.088 48.4028 518.741 38.6484 509.699 46.8818L484.502 67.7671L490.403 51.5044C493.117 42.979 500.679 15.7695 486.704 19.0298C483.913 20.0674 482.061 24.0107 480.252 27.8633C479.568 29.3198 478.889 30.7637 478.169 32.0327C476.428 35.5845 474.415 38.0933 472.319 40.7075L472.313 40.7134C471.229 42.064 470.123 43.4424 469.02 45.0068C465.15 50.2637 440.603 69.6475 434.896 71.7578L448.279 40.0703L448.604 39.3252L448.607 39.3184C451.367 33.0122 462.404 7.7915 450.241 10.23C447.823 10.5767 442.853 15.9058 437.27 21.8916C432.595 26.9053 427.489 32.3794 423.095 35.771L423.007 35.8584L423.001 35.8643L422.985 35.8804C419.085 39.7437 410.161 48.5864 406.352 50.0029C408.91 44.0537 410.751 39.3643 412.544 34.7974C414.936 28.7041 417.242 22.8291 421.051 14.4727C421.391 13.6855 421.824 12.7915 422.292 11.8213C423.893 8.50928 425.921 4.31299 426.172 0.485352H410.358L387.368 21.5703C384.164 24.561 364.158 41.7046 362.234 42.458L372.438 9.85889C372.488 9.72168 372.543 9.57568 372.602 9.42139C372.705 9.15039 372.822 8.854 372.951 8.53418C373.471 7.24512 374.188 5.57764 374.998 3.69141L375.023 3.63281C375.451 2.63574 375.906 1.57861 376.37 0.485352H363.629C358.539 12.7871 355.512 21.8091 350.841 40.3252C350.757 40.6182 350.672 40.9233 350.586 41.2363L350.562 41.3198L350.535 41.418L350.534 41.4253C349.936 43.5815 349.234 46.1191 348.144 48.0859C347.802 49.6392 347.299 50.8027 346.796 51.9658C346.293 53.1294 345.791 54.2925 345.448 55.8462C343.401 62.1055 346.438 69.2881 352.161 66.4131L363.109 58.2676C366.35 56.1538 368.592 54.3921 371.045 52.4639C371.993 51.7183 372.974 50.9478 374.056 50.1221C377.953 46.3979 380.526 44.1431 384.406 41.1836C388.304 37.459 402.508 23.9521 404.432 23.1987L390.4 56.3872L390.258 56.5864C387.065 61.0425 383.822 65.5693 381.234 70.1265C380.463 71.9097 379.998 73.7524 379.827 75.4854H396.129L411.17 62.7793C414.436 59.7915 432.504 44.0894 435.04 43.4409L427.673 62.0088C425.703 66.5654 423.197 71.0894 420.842 75.3398C420.815 75.3882 420.788 75.437 420.762 75.4854H451.447L455.358 72.7007L455.745 72.3843L456.685 71.6172C460.631 68.3994 464.078 65.5879 467.605 61.4766C472.113 57.6899 474.559 54.7695 476.405 52.5649L476.408 52.562C477.461 51.3037 478.319 50.2788 479.254 49.4595C477.229 56.3501 471.971 67.0088 467.23 75.4854H495.237ZM310.971 75.4854C307.572 73.1636 304.11 70.9453 301.225 69.0967C300.202 68.4414 299.252 67.8325 298.403 67.2822C297.378 66.6172 296.499 66.0371 295.818 65.563C284.882 58.5186 278.733 53.7251 270.708 47.4688C268.884 46.0464 266.963 44.5483 264.866 42.9312C264.235 42.3838 263.531 41.8188 262.779 41.2417C261.52 40.2744 260.128 39.2729 258.727 38.2651C255.523 35.9595 252.27 33.6191 250.442 31.5728L289.608 35.0483C292.434 35.2598 295.58 35.8574 298.742 36.458C308.239 38.2627 317.88 40.0942 319.458 31.5728C321.137 25.2817 317.52 23.4712 313.903 21.6611C312.988 21.2031 312.073 20.7451 311.244 20.2144L286.502 4.5332C285.798 3.9375 285.206 3.44629 284.646 2.98291C284.257 2.66064 283.885 2.35156 283.502 2.03076C282.95 1.56738 282.377 1.07812 281.704 0.485352H253.838L276.185 16.7393L223.597 12.4165C215.383 10.7212 205.066 10.7212 206.067 20.2993C206.803 24.9395 216.199 30.3721 225.135 35.5396L225.139 35.5425C229.588 38.1147 233.923 40.6211 237.019 42.9312C238.319 44.022 240.056 45.4951 242.139 47.2607L242.39 47.4731L242.394 47.4766L242.402 47.4824C250.431 54.29 263.387 65.2729 276.086 75.4854H310.971ZM200.242 75.4854C200.498 74.5117 200.805 73.5127 201.184 72.4741C201.609 71.0483 202.19 69.5327 202.777 68.0039C204.328 63.96 205.915 59.8208 204.742 56.9897C197.81 44.7754 184.286 66.4907 179.272 75.4854H200.242ZM169.705 75.4854L168.611 58.9443C168.351 46.3882 156.185 47.6064 156.89 60.6079C156.484 64.6631 156.622 68.1743 157.25 72.1748C157.325 73.0869 157.389 74.2026 157.446 75.4854H169.705ZM318.556 1.14307L313.266 0.485352H320.284C319.752 0.752441 319.175 0.974121 318.556 1.14307ZM535.54 3.08154L539.365 0.485352H557.903C552.759 3.73926 547.915 6.65479 545.677 7.97852C547.404 8.3252 550.048 8.09424 552.858 7.84912C559.654 7.25586 567.422 6.57812 565.554 13.771C564.025 18.6299 559.845 19.0171 556.563 19.3208C556.1 19.3638 555.654 19.4053 555.236 19.457C554.517 19.4746 553.811 19.4976 553.112 19.5205C549.652 19.6323 546.365 19.7388 542.604 19.1836C542.087 19.1509 541.512 19.1304 540.9 19.1089C537.226 18.98 532.242 18.8052 530.851 15.562C529.028 11.0249 531.942 6.63672 535.54 3.08154Z" fill="#A5004F"/>
</svg>
