<svg width="299" height="581" fill="none" xmlns="http://www.w3.org/2000/svg"><path fill-rule="evenodd" clip-rule="evenodd" d="M.315 556.656c.1133.094.2297.186.3492.279 3.3073 2.534 29.1623 6.396 35.7211 7.304-1.4546.996-3.9934 1.812-6.6918 2.679h-.0004l-.0003.001c-6.5267 2.097-13.9873 4.494-9.303 10.475 3.4115 3.936 7.4351 2.667 10.5939 1.671.4464-.141.8756-.277 1.2834-.391.6593-.259 1.3095-.509 1.9533-.756l.0317-.012.0044-.001c3.2452-1.245 6.3278-2.428 9.5768-4.413.4633-.231.9859-.474 1.5416-.732l.0024-.002c3.3441-1.553 7.8796-3.66 7.8317-7.227-.1794-4.944-4.6777-7.901-9.4659-9.813l-24.0843-4.866c5.3531-2.973 12.179-6.643 18.0693-8.435 6.213-2.208 9.1204-10.262-5.5258-15.543-11.0392-3.508-19.2826-3.628-27.9812-3.754h-.0002c-1.2885-.018-2.587-.037-3.906-.067v11.523c.4009.036.8125.069 1.2373.098.7858.009 1.6949.007 2.6879.006h.0072c5.4042-.006 13.2882-.016 17.2965 1.565-4.0425 2.902-9.6891 4.93-14.5668 6.682h-.0001c-2.5413.913-4.8738 1.75-6.662 2.597v11.132zm0-147.107c1.7095-.985 3.3008-1.894 4.8117-2.758l.0112-.007.0429-.024.0044-.003h.0004c7.7129-4.409 13.3403-7.626 21.9515-13.472-3.531 5.987-7.1164 11.002-10.4281 15.634-4.9848 6.973-9.3498 13.078-11.9767 20.327-9.1655 24.233 16.8332 16.048 28.5333 12.365 1.0754-.338 2.03-.639 2.8254-.873-.4756.704-1.0315 1.499-1.6396 2.368-4.4165 6.314-11.589 16.568-10.7955 24.55 1.1237 5.956 6.0412 10.101 10.312 10.389 16.8722.896 85.7191-54.075 86.4391-59.284 2.086-6.562-3.212-12.725-8.849-11.661-1.246.235-7.741 5.482-16.1928 12.309h-.0003c-14.9152 12.049-35.9232 29.019-44.926 32.052 1.3729-4.318 8.99-12.01 15.3822-18.465 3.3222-3.355 6.3135-6.376 7.9253-8.416.5285-.624 1.3415-1.487 2.3275-2.534 6.6839-7.1 21.3177-22.643 9.1832-29.282-9.3338 5.376-18.8213 10.781-28.3316 16.199-11.9511 6.808-23.938 13.637-35.7009 20.454 3.8556-5.115 7.7306-10.029 11.5978-14.932l.0006-.001c4.1982-5.323 8.3871-10.635 12.5319-16.181.6042-.764 1.4525-1.761 2.4544-2.939 6.8131-8.007 20.7315-24.364 13.3488-32.771-4.1099-5.744-11.5917.192-16.7432 4.28l-.0008.001c-.5077.403-.9928.787-1.4497 1.141C27.01 378.1 14.7166 384.47.3149 391.904v17.645zm0-34.181c3.331-4.507 6.6911-8.804 9.4033-12.272.6641-.85 1.2893-1.649 1.8657-2.39 1.3509-1.828 3.7521-4.715 6.5856-8.122h.0001c8.2759-9.949 20.2395-24.333 20.4922-29.716-.2704-10.53-18.9253-1.758-38.347 10.023v17.494c.1246-.053.2489-.106.3727-.157-.1206.222-.2449.446-.3727.671v24.469zm0-80.019v18.222c4.4762-4.289 7.638-7.404 8.2917-8.608 2.8295-2.623.7415-9.392-2.0482-10.855-.7366-.463-3.0057.064-6.2436 1.241zm0-172.824V89.6333l.498-.4148.0002-.0002c3.4186-2.848 6.8453-5.7027 10.4507-8.3707 1.6978-1.1137 3.5109-2.5949 5.3828-4.1242l.0001-.0001c5.7108-4.6657 11.9686-9.7782 17.1695-6.2626 11.7793 8.6424 6.6954 21.1246 2.388 31.7003l-.0011.003c-.3344.821-.6642 1.63-.981 2.426-.7009 3.135-2.1021 7.638-3.5879 12.414-2.5676 8.254-5.3878 17.319-5.2835 21.533 3.435-4.593 6.9348-8.796 10.429-12.993h.0001c3.7805-4.54 7.5543-9.072 11.2324-14.082 4.5618-4.388 19.5239-1.857 16.1544 23.347-.4411 4.497-.847 8.918-1.2484 13.289l-.0002.002c-1.9239 20.95-3.7436 40.766-8.8275 62.481 8.5344-2.238 21.5807-19.356 32.3615-33.501 4.4584-5.849 8.5293-11.191 11.7335-14.761 7.0144-7.037 17.9624-15.179 25.7524-.565 8.025 12.982 8.033 54.335 8.039 86.958.002 14.217.005 26.776.67 34.607 1.028 14.163-1.794 24.307-12.289 19.831-11.372-2.723-10.783-17.866-10.07-26.272-.798-5.588-.666-11.257-.526-17.293v-.001c.089-3.805.181-7.758.046-11.929.429-11.025.321-23.844.225-35.232-.078-9.299-.148-17.645.089-23.282-1.108 1.336-2.563 3.175-4.304 5.374-16.5385 20.902-58.8506 74.376-74.2731 38.152-4.1177-10.711.1021-25.025 4.3192-39.33 3.5558-12.062 7.1096-24.117 5.6619-34-5.0884 3.119-10.4486 9.442-15.7786 15.728C16.6882 185.75 7.7163 196.333.3149 190.91v-42.926c.5779-1.887 1.166-3.77 1.7483-5.632v-.001c3.0314-9.699 5.9-18.879 6.2974-25.519-2.7336 1.974-5.4002 3.845-8.0457 5.693zm190.51 263.7c6.193-16.755 17.619-47.67 16.877-54.977-6.997 4.789-17.492 11.972-24.123 15.28-8.853 3.907-13.725-3.211-4.608-10.577 6.519-5.486 14.369-10.859 22.304-16.29 1.897-1.298 3.865-2.872 5.862-4.471 5.463-4.37 11.15-8.921 16.217-8.487 6.921.592 5.171 11.217 4.006 15.19-1.449 4.946-1.805 7.873-2.203 11.139-.241 1.983-.497 4.09-1.022 6.849-.878 3.912-2.809 9.213-4.778 14.62h-.001c-3.028 8.313-6.146 16.873-5.665 21.014l24.258-22.955c12.223-10.517 20.329-2.333 16.771 7.48-.617 1.448-1.169 2.631-1.684 3.735l-.001.002c-1.13 2.422-2.082 4.46-3.14 8.069l-13.238 35.396 42.361-34.218c6.041-6.184 14.83-12.199 19.373-3.729 1.988 4.249-2.956 14.202-7.657 23.668h-.001c-2.34 4.712-4.62 9.302-5.956 13.009-.511 1.718-1.193 4.052-2.012 6.855l-.006.022c-6.726 23.025-22.696 77.696-29.634 84.362-6.143 4.205-16.187 4.725-17.833-1.526-2.068-4.484 5.114-20.735 9.535-30.74 1.108-2.508 2.043-4.623 2.615-6.062 5.346-12.174 7.883-19.705 11.193-29.533l.001-.001v-.001c.753-2.235 1.545-4.588 2.42-7.142.614-2.189 1.602-4.791 2.601-7.421 1.43-3.765 2.882-7.588 3.287-10.339l-31.405 25.694c-2.289 1.822-4.632 4.148-6.986 6.486-7.074 7.022-14.254 14.151-20.4 8.055-4.974-4.201-2.914-7.799-.853-11.398.522-.911 1.043-1.821 1.45-2.742l12.241-27.334c.264-.902.493-1.652.708-2.361.398-1.306.752-2.469 1.208-4.176.47-1.516.83-2.338 1.108-2.971v-.001c.437-.997.669-1.528.808-3.565l-33.047 28.97c-6.246 2.225-11.916-2.399-10-8.937.142-3.657 1.781-6.912 3.568-10.461l.001-.001v-.001c.836-1.661 1.705-3.386 2.468-5.247.679-1.92 1.734-4.774 3.012-8.231zm51.697-199.473v.001c-2.299 4.667-4.234 8.596-3.658 10.553 1.208 2.429 4.14 4.429 8.855 3.905 4.139-.476 25.412-15.67 30.759-19.575-.353 1.728-1.612 4.079-2.949 6.578-3.235 6.044-6.933 12.953.592 13.998 5.188.459 7.199-3.25 8.778-6.162v-.001c.223-.411.437-.807.651-1.172.299-.657.599-1.299.895-1.936 1.468-3.151 2.863-6.143 3.819-9.829.173-.489.38-1.027.6-1.599v-.001c1.325-3.441 3.122-8.109.608-10.64-3.565-3.43-8.854-2.429-13.626-.477l-20.698 13.241c1.782-5.858 4.139-13.241 7.129-18.623 2.932-5.906-.575-13.717-14.776-7.335-10.375 5.151-16.385 10.794-22.727 16.75-2.69 2.526-5.44 5.108-8.608 7.732-1.121.929-2.242 1.976-3.369 3.029l-.001.001c-1.243 1.161-2.493 2.328-3.759 3.352l-.289.298-.245.254h-.001c-2.179 2.249-4.362 4.502-6.594 6.307-2.932 2.953 0 7.335 4.714 6.858 4.213-.883 11.116-6.704 15.128-10.087l.002-.002c.532-.448 1.012-.853 1.429-1.199 1.468-1.513 2.959-2.657 4.583-3.902l.001-.001c.983-.754 2.015-1.545 3.12-2.479.572-.541 1.227-1.175 1.942-1.868 3.881-3.761 9.543-9.248 13.524-10.897-.889 4.896-3.54 10.279-5.829 14.928zM19.3062.7476c2.0657 11.7464 4.9347 22.5334 7.8173 24.6121 2.1873 2.3659 6.4912 1.7888 9.4546 0 3.5984-1.7888 4.3745-3.5777 5.0801-7.0977L47.2508.7476H19.3062zm36.7134 0c2.467 16.1787 6.0349 35.7964 10.9686 40.654 4.3745 3.5777 9.4546 4.7318 13.8291 0 4.2861-4.5277 8.0699-27.6212 9.9955-39.3738.0726-.4434.1426-.8707.2099-1.2802H77.2102l-3.7308 13.879c-.9019-1.2135-2.2956-6.9793-3.6223-13.879H56.0196zm51.1054 0H92.1127c.6735 6.9307.9465 14.3199 1.2174 21.6526.1556 4.2114.3106 8.4042.5403 12.4808 0 1.6346-.0669 3.7234-.1389 5.9714-.1619 5.0529-.3495 10.9105.1389 14.2252.7055 4.7318 8.6786 9.5213 14.4646 4.7318 6.232-4.6459 10.696-11.8304 15.146-18.9904 1.243-1.9999 2.484-3.9978 3.763-5.938.671-.8932 1.546-2.0933 2.558-3.4819 4.414-6.0576 11.442-15.7007 15.575-19.0807l1.482-1.7888c.423 6.3997.085 12.7994-.254 19.2115-.226 4.284-.452 8.5735-.452 12.8723-.148 2.6128-.457 5.2255-.753 7.7287-1.117 9.4387-2.049 17.3207 6.539 17.7768 6.491.6348 8.749-3.5777 9.454-8.3095.668-19.1123 1.399-39.8264 3.269-59.0618h-29.136c-3.91 4.1406-7.726 8.4518-11.246 13.302-5.785 7.7324-9.454 13.099-14.534 20.7737-1.448-11.8021-2.247-22.8204-2.621-34.0757z" fill="#FFDEEE"/></svg>